<svg version="1.0" xmlns="http://www.w3.org/2000/svg" width="750.667" height="161.333" viewBox="0 0 563 121">
    <path d="M282.5 20.4c-16.1 3.9-28.1 16.6-31.6 33.5-1.5 7.5.2 17.1 4.8 26.1 4 8.1 9.3 13.2 18.9 18.1 6.5 3.2 7.3 3.4 17.4 3.4 10.1 0 10.9-.2 17.6-3.5 20.3-10.2 28.7-31.4 21-52.9-4.3-11.9-17.7-22.5-31.5-25.1-6.7-1.2-10.2-1.2-16.6.4zm25.8 7c7.1 3.6 14 10.8 17.5 18.4 2.3 4.9 2.7 7 2.7 14.7 0 8.2-.3 9.7-3.3 15.7-3.7 7.5-10.4 14.2-17.9 17.9-4.1 2.1-6.3 2.4-15.3 2.4-10 0-10.8-.1-16.8-3.4-7.5-4.1-13.5-10.3-17-17.9-2.3-4.9-2.7-7-2.7-14.7 0-8.2.3-9.7 3.3-15.7 3.3-6.8 8.5-12.7 13.7-15.6 8.2-4.5 10.8-5.2 20.5-4.9 8.2.2 10.3.6 15.3 3.1z"/>
    <path d="M280.5 30.4c-6.1 2.8-11.9 9-15.3 16.5-2.2 4.6-2.6 7-2.6 13.6 0 6.9.5 9.1 3 14.5 5.8 12.4 14.4 18.3 26.4 18.3 14.2 0 24.5-8.8 28.5-24.3 4.1-15.8-3-32.1-16.8-38.6-7.1-3.3-16.3-3.3-23.2 0zm18.8 3.2c17.2 5.9 23.2 30 11.3 45.6-9.2 12.1-27.3 12.5-36.4 1-6.9-8.7-9-20.5-5.3-30.2 5.4-14.3 17.5-20.8 30.4-16.4zM416.9 20.6c-3.7.8-8.9 2.6-11.5 4.1-7 3.9-14.9 12.2-18.1 19-2.5 5.2-2.8 6.9-2.8 16.8 0 10.8.1 11.3 3.7 18.6 8.2 16.7 24.2 25 43.5 22.7 27.9-3.3 44.4-35.1 31.1-60-3.8-7.2-12.4-15.3-19.6-18.5-4.2-1.8-16.5-4.5-19.2-4.2-.3 0-3.5.7-7.1 1.5zm20.2 15.5c2.6 1.4 5.9 4.6 8.1 7.7 7.9 11.4 7.3 25.8-1.4 35.8-10.4 11.9-25.2 12.4-35.2 1.3-12.8-14.2-9.4-37.3 6.7-45.4 4.4-2.3 6.1-2.6 11.4-2.2 3.9.3 7.7 1.3 10.4 2.8zM19 21.6c0 1.5 10.4 29.2 20 52.9 2.6 6.6 5.1 13.1 5.5 14.5.4 1.4 1.4 4 2.2 5.8l1.6 3.3 7.6-.3 7.6-.3L75 69c6.4-15.7 13.3-32.7 15.4-37.8 2.5-6.1 3.5-9.7 2.9-10.3-.6-.6-4.3-.9-8.4-.7l-7.3.3-4.1 9.7c-2.2 5.4-6.9 17-10.5 25.8-3.6 8.8-6.8 16-7.1 16-.4 0-1.1-1.2-1.7-2.8-.6-1.5-5-12.6-9.7-24.7-4.8-12.1-9.1-22.5-9.7-23.2-.7-.8-3.7-1.3-8.4-1.3-6 0-7.4.3-7.4 1.6zm19.9 21.1c8 20.4 13.8 35.4 15.3 39.2.7 2.1 1.1 2.2 2.2 1 .7-.8 4.5-9.5 8.4-19.4 3.9-9.9 9.1-22.7 11.5-28.5l4.3-10.5 3.4.3c1.9.1 3.5.4 3.7.5.2.3-11.8 30.3-16.7 41.7-1.1 2.5-3.9 9.2-6.3 15l-4.3 10.5h-9.7l-3.3-9c-1.9-5-3.8-9.9-4.4-11-1.9-3.9-18-46-18-47.3 0-.7 1.3-1.2 3.3-1.2h3.3l7.3 18.7zM98.2 21.2c-.6.8-1.1 15.2-1.4 38.8l-.3 37.5 7.6.3 7.6.3.7-3.2c.3-1.7.6-19 .6-38.4V21.2l-2.2-.6c-4-1-11.5-.6-12.6.6zm10.5 27c-.4 12.8-.7 28.1-.7 34V93h-7.1l.2-29.2c.1-16.1.4-31.4.7-34 .4-4.7.5-4.8 4-4.8h3.5l-.6 23.2zM124.4 20.8l-3.1.3-.6 9.7c-.4 5.3-.7 22.6-.7 38.4V98h22.5c21.4 0 22.7-.1 27.7-2.4 7.5-3.3 13-8.6 17.1-16.4 6.6-12.4 6.9-25.8 1.1-37.7-5.5-11.1-15-18.9-24.5-20-5.1-.6-34.9-1.1-39.5-.7zm45.2 6.9c5.7 3 11.1 8.8 14.6 15.7 5.9 11.7 4.5 26.5-3.7 37.6-4.2 5.7-6.7 7.7-12.4 10.4-4.2 1.9-6.3 2.1-23.8 2.1-10.5 0-19.4-.3-19.8-.7-.4-.3-.4-15.8.1-34.3l.7-33.6 20.1.3c18.4.3 20.4.5 24.2 2.5z"/>
    <path d="M132.6 30.1c-.3.8-.7 14.3-.9 30.1-.4 24.5-.2 28.8 1 29.2 3.2 1.3 22.1.6 27.2-1 6.2-1.8 14.2-8.6 17.2-14.7 8-15.6 1.6-34.8-14.1-42.1-5.7-2.6-29.7-3.8-30.4-1.5zm26.8 5c8.5 2.4 16.7 14.3 16.6 24.3-.1 8.7-5.6 18.1-12.9 22.4-4.1 2.4-5.8 2.7-15.9 3.1l-11.3.3.1-23.5c.1-12.9.4-24.4.7-25.6.5-1.9 1.2-2.1 9.7-2.1 5 0 10.8.5 13 1.1zM196.6 21.8c-1 1.6-.9 75.3.1 76.3.6.6 11.5.8 27.4.7l26.4-.3.3-6.3.3-6.2-10.3-.1c-5.7-.1-11.2-.3-12.3-.4-1.1-.1-5.3-.2-9.2-.3L212 85V65l17.3-.2 17.2-.3v-16l-3-.1c-1.6-.1-9.4-.2-17.2-.3L212 48V34l19.8-.2 19.7-.3.3-4.8c.5-7.9 1.4-7.7-28.4-7.7-14.4 0-26.5.4-26.8.8zm50.3 4.8c.2.2.1 1-.3 1.9-.5 1.4-2.8 1.6-17.3 1.5-9.3-.1-17.8-.1-19.1-.1-2.2.1-2.3.2-2 11.3l.3 11.3 17 .5 17 .5v6l-16.5.3c-14.1.2-16.7.5-17.7 1.9-1.4 1.8-1.9 23.6-.7 26.7.5 1.4 3.2 1.6 19.5 1.6 18.2 0 18.9.1 18.9 2s-.7 2-23.1 2h-23l.3-33.5c.2-27.9.5-33.7 1.7-34.5 1.3-.8 44-.2 45 .6zM330.2 29.7l.3 7.8 8 .3c4.4.1 9 .4 10.3.7l2.3.6-.1 28.7v30.5c0 1.6.9 1.8 7.8 1.5l7.7-.3.5-30.5.5-30.5 9-.2c5-.2 9.6-.5 10.3-.8.9-.3 1.2-2.5 1-7.7l-.3-7.3-28.8-.3-28.8-.2.3 7.7zM471.2 23.7c-.4 1-.7 18.4-.7 38.8v36.9l4 .7c2.2.4 5.8.4 8 0l4-.6.5-23 .5-23L494 63c3.5 5.2 10.4 15.6 15.3 23 5 7.4 9.5 13.8 10.1 14.2.6.4 3.9.8 7.3.8 9.9 0 9.3 2.2 9.2-36.8-.1-18.5-.4-35.5-.8-37.7l-.6-4-7.3-.3c-3.9-.2-7.3-.2-7.4 0-.1.2-.5 10.6-.8 23.2l-.5 23-4.7-7c-6.8-10.1-18-26.3-22.9-33.3l-4.3-6.1h-7.3c-6.1 0-7.5.3-8.1 1.7z"/>
</svg>
